<svg xmlns="http://www.w3.org/2000/svg" xmlns:svg="http://www.w3.org/2000/svg" id="svg56" width="938" height="604" data-name="Layer 1" version="1.1" viewBox="0 0 938 604"><title id="title2">candidate</title><path id="path4" fill="#f2f2f2" d="M811.58429,714.65594l-4.87378-60.57568-13.92548,64.057s.18372,16.16052.64533,33.86273h17.84045C811.87158,731.76422,811.58429,714.65594,811.58429,714.65594Z" transform="translate(-131 -148)"/><path id="path6" fill="#f2f2f2" d="M560.9895,736.19861A123.33379,123.33379,0,0,1,558.092,718.978l-1.94922-20.95453c-.81982-5.739-1.66186-10.79547-2.50854-15.25873-6.20777-31.82275-12.61634-32.97345-12.61634-32.97345-.27539.21082-.54309.44428-.81848.68518a20.6289,20.6289,0,0,0-2.09814,2.214C527.89478,665.66278,520.9707,699.309,517.333,721.629c-2.00879,12.32928-3.00952,21.201-3.00952,21.201s.90966,3.77911,2.15,9.17h46.57477A82.799,82.799,0,0,0,560.9895,736.19861Z" transform="translate(-131 -148)"/><ellipse id="ellipse10" cx="210" cy="169" fill="#3f3d56" rx="95" ry="86.45"/><path id="path12" fill="#ffb9b9" d="M497.5,599.5h0s32-22,32-32,22-75,34-46-17,70-17,70-32,58-51,68-35,4-35,4v-27l18.28172-27.05694A22.59052,22.59052,0,0,1,497.5,599.5Z" transform="translate(-131 -148)"/><path id="path14" fill="#575a89" d="M406.54367,446.33627S454.5,461.5,459.5,468.5s7-5,21,41S498,600,498,600s-34.5,11.5-30.5,56.5-6,94-6,94H449.01575L421.5,665.5l33-129S407.58734,457.17255,406.54367,446.33627Z" transform="translate(-131 -148)"/><circle id="circle16" cx="259.5" cy="196.5" r="60" fill="#ffb9b9"/><path id="path18" fill="#ffb9b9" d="M413.5,389.5s-17,56-2,64,32,44,32,44l-26,29h-60l-27-30-11-51,15-12s16-40,16-61S413.5,389.5,413.5,389.5Z" transform="translate(-131 -148)"/><path id="path20" fill="#6c63ff" d="M418.5,451.5s-12-3-5,9,14,34-11,35-50-12-58-39-11-25-14-24-35,34-35,34l11,62,4,222h146s6-64-4-79,9-53,9-53,17-26,4-76S423.5,451.5,418.5,451.5Z" transform="translate(-131 -148)"/><path id="path22" fill="#575a89" d="M337.5,432.5s-15-7-28,5-42,22-42,28,25,177,8,207-35,78-35,78h83.41339S337.5,700.5,351.5,673.5s13-103,9-126S337.5,432.5,337.5,432.5Z" transform="translate(-131 -148)"/><polygon id="polygon24" fill="#ffb9b9" points="118.5 549.5 123.37 602.5 177.417 602.5 172.5 536.5 118.5 549.5"/><polygon id="polygon26" fill="#3f3d56" points="364.5 521.5 377.5 602.5 666.5 602.5 691.5 439.5 364.5 521.5"/><polygon id="polygon28" fill="#3f3d56" points="702.5 428.5 705.5 443.5 331.5 533.5 331.5 520.5 702.5 428.5"/><polygon id="polygon30" fill="#3f3d56" points="544.5 455.5 542.5 472.5 564.5 469.5 555.5 452.5 544.5 455.5"/><path id="path32" fill="none" stroke="#3f3d56" stroke-miterlimit="10" stroke-width="5" d="M554.5,431.5s44-3,56,31,40,95,51,104,23,33,21,41" transform="translate(-131 -148)"/><path id="path34" fill="#6c63ff" d="M561,431c0,4.69442-4.99187,8.5-13,8.5s-12-3.80558-12-8.5,3.99187-8.5,12-8.5S561,426.30558,561,431Z" transform="translate(-131 -148)"/><path id="path36" fill="#575a89" d="M487,587s7.5-31.5-6.5-77.5-16-34-21-41-52.9563-22.16376-52.9563-22.16376c.3429,3.56073,5.63867,14.517,12.595,27.62348A53.19322,53.19322,0,0,0,413.5,460.5c-7-12,5-9,5-9,5,0,34,41,47,91s-4,76-4,76Z" transform="translate(-131 -148)"/><path id="path38" fill="#575a89" d="M407,446s5.92022,22.45759,10.96011,25.7288,34.92965,34.32479,34.92965,34.32479L449,481l-16-24-4.25561-3.088Z" transform="translate(-131 -148)"/><path id="path40" d="M274,515l1.39427-51.5S242.5,477.5,239.5,537.5s5,173,16,174,63-11,63-11,8-145,5-164S274,515,274,515Z" opacity=".1" transform="translate(-131 -148)"/><path id="path42" fill="#575a89" d="M276.5,463.5h-8.10573S235.5,477.5,232.5,537.5s5,173,16,174,63-11,63-11,8-145,5-164S276.5,463.5,276.5,463.5Z" transform="translate(-131 -148)"/><ellipse id="ellipse44" cx="188" cy="180.5" fill="#3f3d56" rx="62" ry="69.5"/><ellipse id="ellipse46" cx="232.5" cy="218.5" fill="#ffb9b9" rx="12.5" ry="18.5"/><circle id="circle48" cx="126" cy="111" r="51" fill="#3f3d56"/><path id="path50" fill="#3f3d56" d="M263.5918,299.85688a50.99614,50.99614,0,0,1-73.89232-40.61309,50.9945,50.9945,0,1,0,101.1756,2.83871A50.92106,50.92106,0,0,1,263.5918,299.85688Z" transform="translate(-131 -148)"/><path id="path52" fill="#3f3d56" d="M229.02071,267.42955a50.99615,50.99615,0,0,1,25.68212-80.31143,50.99449,50.99449,0,1,0,16.625,99.84072A50.921,50.921,0,0,1,229.02071,267.42955Z" transform="translate(-131 -148)"/><ellipse id="ellipse54" cx="263" cy="150" fill="#3f3d56" rx="36" ry="26"/><metadata id="metadata1047"/></svg>